<svg viewBox="0 0 14 14" fill="currentColor" xmlns="http://www.w3.org/2000/svg">
<g clip-path="url(#clip0_711_699)">
<path d="M11.6667 2.17545H2.33333C1.69167 2.17545 1.1725 2.70045 1.1725 3.34211L1.16667 10.3421C1.16667 10.9838 1.69167 11.5088 2.33333 11.5088H11.6667C12.3083 11.5088 12.8333 10.9838 12.8333 10.3421V3.34211C12.8333 2.70045 12.3083 2.17545 11.6667 2.17545ZM11.4333 4.65461L7.30917 7.23295C7.1225 7.34961 6.8775 7.34961 6.69083 7.23295L2.56667 4.65461C2.42083 4.56128 2.33333 4.40378 2.33333 4.23461C2.33333 3.84378 2.75917 3.61045 3.09167 3.81461L7 6.25878L10.9083 3.81461C11.2408 3.61045 11.6667 3.84378 11.6667 4.23461C11.6667 4.40378 11.5792 4.56128 11.4333 4.65461Z" fill="currentColor"/>
</g>
<defs>
<clipPath id="clip0_711_699">
<rect width="100%" height="100%" fill="currentColor"/>
</clipPath>
</defs>
</svg>
