<svg viewBox="0 0 14 14" fill="currentColor" xmlns="http://www.w3.org/2000/svg">
<path d="M11.0833 2.25H2.91667C2.27208 2.25 1.75 2.77208 1.75 3.41667V11.5833C1.75 12.2279 2.27208 12.75 2.91667 12.75H11.0833C11.7279 12.75 12.25 12.2279 12.25 11.5833V3.41667C12.25 2.77208 11.7279 2.25 11.0833 2.25ZM4.51383 10.4167C4.10725 10.4167 3.77767 10.0871 3.77767 9.6805V7.06892C3.77825 6.66292 4.10783 6.33333 4.51383 6.33333C4.92042 6.33333 5.25 6.66292 5.25 7.0695V9.68108C5.25 10.0871 4.92042 10.4167 4.51383 10.4167ZM4.48817 5.58492C4.03842 5.58492 3.738 5.28508 3.738 4.88492C3.738 4.48475 4.03783 4.18492 4.53775 4.18492C4.9875 4.18492 5.28792 4.48475 5.28792 4.88492C5.28792 5.28508 4.98808 5.58492 4.48817 5.58492ZM9.78775 10.4167C9.39458 10.4167 9.0755 10.0976 9.0755 9.70442V8.18483C9.0755 7.56767 8.69575 7.5 8.55342 7.5C8.41108 7.5 7.93625 7.52042 7.93625 8.18483V9.70442C7.93625 10.0976 7.61717 10.4167 7.224 10.4167H7.17675C6.78358 10.4167 6.4645 10.0976 6.4645 9.70442V7.0695C6.4645 6.66292 6.79408 6.33333 7.20067 6.33333C7.60725 6.33333 7.93683 6.66292 7.93683 7.0695C7.93683 7.0695 8.10133 6.33333 9.219 6.33333C9.93008 6.33333 10.5 6.90325 10.5 8.18483V9.70442C10.5 10.0976 10.1809 10.4167 9.78775 10.4167Z" fill="currentColor"/>
</svg>
